<mxfile host="app.diagrams.net" agent="Mozilla/5.0 (Windows NT 10.0; Win64; x64) AppleWebKit/537.36 (KHTML, like Gecko) Chrome/137.0.0.0 Safari/537.36 Edg/137.0.0.0" version="26.0.6">
  <diagram id="C5RBs43oDa-KdzZeNtuy" name="Page-1">
    <mxGraphModel dx="1666" dy="781" grid="1" gridSize="10" guides="1" tooltips="1" connect="1" arrows="1" fold="1" page="1" pageScale="1" pageWidth="827" pageHeight="1169" math="0" shadow="0">
      <root>
        <mxCell id="WIyWlLk6GJQsqaUBKTNV-0" />
        <mxCell id="WIyWlLk6GJQsqaUBKTNV-1" parent="WIyWlLk6GJQsqaUBKTNV-0" />
        <mxCell id="WIyWlLk6GJQsqaUBKTNV-3" value="Start" style="rounded=1;whiteSpace=wrap;html=1;fontSize=12;glass=0;strokeWidth=1;shadow=0;" parent="WIyWlLk6GJQsqaUBKTNV-1" vertex="1">
          <mxGeometry x="155" y="8" width="120" height="40" as="geometry" />
        </mxCell>
        <mxCell id="eKp5xaFt9BeZf48VGlIr-9" value="" style="edgeStyle=orthogonalEdgeStyle;rounded=0;orthogonalLoop=1;jettySize=auto;html=1;" edge="1" parent="WIyWlLk6GJQsqaUBKTNV-1" source="eKp5xaFt9BeZf48VGlIr-0" target="eKp5xaFt9BeZf48VGlIr-2">
          <mxGeometry relative="1" as="geometry">
            <Array as="points">
              <mxPoint x="220" y="200" />
              <mxPoint x="220" y="200" />
            </Array>
          </mxGeometry>
        </mxCell>
        <mxCell id="eKp5xaFt9BeZf48VGlIr-0" value="Player presses SPACE" style="rounded=1;whiteSpace=wrap;html=1;" vertex="1" parent="WIyWlLk6GJQsqaUBKTNV-1">
          <mxGeometry x="160" y="81" width="120" height="60" as="geometry" />
        </mxCell>
        <mxCell id="eKp5xaFt9BeZf48VGlIr-2" value="Play animation" style="rounded=1;whiteSpace=wrap;html=1;" vertex="1" parent="WIyWlLk6GJQsqaUBKTNV-1">
          <mxGeometry x="159" y="180" width="120" height="60" as="geometry" />
        </mxCell>
        <mxCell id="eKp5xaFt9BeZf48VGlIr-16" value="" style="edgeStyle=orthogonalEdgeStyle;rounded=0;orthogonalLoop=1;jettySize=auto;html=1;" edge="1" parent="WIyWlLk6GJQsqaUBKTNV-1" source="eKp5xaFt9BeZf48VGlIr-3">
          <mxGeometry relative="1" as="geometry">
            <mxPoint x="220" y="362" as="targetPoint" />
          </mxGeometry>
        </mxCell>
        <mxCell id="eKp5xaFt9BeZf48VGlIr-3" value="Player presses SPACE" style="rounded=1;whiteSpace=wrap;html=1;" vertex="1" parent="WIyWlLk6GJQsqaUBKTNV-1">
          <mxGeometry x="160" y="270" width="120" height="60" as="geometry" />
        </mxCell>
        <mxCell id="eKp5xaFt9BeZf48VGlIr-7" value="" style="endArrow=classic;html=1;rounded=0;" edge="1" parent="WIyWlLk6GJQsqaUBKTNV-1">
          <mxGeometry width="50" height="50" relative="1" as="geometry">
            <mxPoint x="218" y="242" as="sourcePoint" />
            <mxPoint x="218" y="271" as="targetPoint" />
          </mxGeometry>
        </mxCell>
        <mxCell id="eKp5xaFt9BeZf48VGlIr-10" value="" style="edgeStyle=orthogonalEdgeStyle;rounded=0;orthogonalLoop=1;jettySize=auto;html=1;" edge="1" parent="WIyWlLk6GJQsqaUBKTNV-1">
          <mxGeometry relative="1" as="geometry">
            <mxPoint x="215" y="50" as="sourcePoint" />
            <mxPoint x="215" y="82" as="targetPoint" />
            <Array as="points">
              <mxPoint x="215" y="73" />
              <mxPoint x="215" y="73" />
            </Array>
          </mxGeometry>
        </mxCell>
        <mxCell id="eKp5xaFt9BeZf48VGlIr-18" value="Is character colliding with boxes?" style="rhombus;whiteSpace=wrap;html=1;" vertex="1" parent="WIyWlLk6GJQsqaUBKTNV-1">
          <mxGeometry x="155" y="360" width="130" height="100" as="geometry" />
        </mxCell>
        <mxCell id="eKp5xaFt9BeZf48VGlIr-19" value="" style="endArrow=classic;html=1;rounded=0;exitX=1;exitY=0.5;exitDx=0;exitDy=0;" edge="1" parent="WIyWlLk6GJQsqaUBKTNV-1" source="eKp5xaFt9BeZf48VGlIr-18">
          <mxGeometry width="50" height="50" relative="1" as="geometry">
            <mxPoint x="430" y="400" as="sourcePoint" />
            <mxPoint x="360" y="410" as="targetPoint" />
          </mxGeometry>
        </mxCell>
        <mxCell id="eKp5xaFt9BeZf48VGlIr-22" value="No" style="text;html=1;align=center;verticalAlign=middle;resizable=0;points=[];autosize=1;strokeColor=none;fillColor=none;" vertex="1" parent="WIyWlLk6GJQsqaUBKTNV-1">
          <mxGeometry x="300" y="388" width="40" height="30" as="geometry" />
        </mxCell>
        <mxCell id="eKp5xaFt9BeZf48VGlIr-23" value="Wait or Reset" style="rounded=1;whiteSpace=wrap;html=1;" vertex="1" parent="WIyWlLk6GJQsqaUBKTNV-1">
          <mxGeometry x="360" y="380" width="120" height="60" as="geometry" />
        </mxCell>
        <mxCell id="eKp5xaFt9BeZf48VGlIr-24" value="" style="endArrow=classic;html=1;rounded=0;" edge="1" parent="WIyWlLk6GJQsqaUBKTNV-1">
          <mxGeometry width="50" height="50" relative="1" as="geometry">
            <mxPoint x="219.5" y="460" as="sourcePoint" />
            <mxPoint x="220" y="510" as="targetPoint" />
          </mxGeometry>
        </mxCell>
        <mxCell id="eKp5xaFt9BeZf48VGlIr-25" value="Yes" style="text;html=1;align=center;verticalAlign=middle;resizable=0;points=[];autosize=1;strokeColor=none;fillColor=none;" vertex="1" parent="WIyWlLk6GJQsqaUBKTNV-1">
          <mxGeometry x="210" y="468" width="40" height="30" as="geometry" />
        </mxCell>
        <mxCell id="eKp5xaFt9BeZf48VGlIr-26" value="Add points" style="rounded=1;whiteSpace=wrap;html=1;" vertex="1" parent="WIyWlLk6GJQsqaUBKTNV-1">
          <mxGeometry x="165" y="510" width="120" height="60" as="geometry" />
        </mxCell>
        <mxCell id="eKp5xaFt9BeZf48VGlIr-27" value="" style="endArrow=classic;html=1;rounded=0;" edge="1" parent="WIyWlLk6GJQsqaUBKTNV-1">
          <mxGeometry width="50" height="50" relative="1" as="geometry">
            <mxPoint x="225" y="570" as="sourcePoint" />
            <mxPoint x="225" y="620" as="targetPoint" />
          </mxGeometry>
        </mxCell>
        <mxCell id="eKp5xaFt9BeZf48VGlIr-28" value="End" style="rounded=1;whiteSpace=wrap;html=1;" vertex="1" parent="WIyWlLk6GJQsqaUBKTNV-1">
          <mxGeometry x="165" y="620" width="120" height="60" as="geometry" />
        </mxCell>
      </root>
    </mxGraphModel>
  </diagram>
</mxfile>
